<svg width="618" height="214" viewBox="0 0 618 214" fill="none" xmlns="http://www.w3.org/2000/svg">
<path d="M288.496 140.376C288.496 145.24 286.875 149.251 283.632 152.408C280.475 155.651 276.464 157.272 271.6 157.272H265.968C255.813 157.272 247.28 153.816 240.368 146.904C233.456 139.992 230 131.459 230 121.304V53.336C230 48.472 231.579 44.4613 234.736 41.304C237.979 38.0613 242.032 36.44 246.896 36.44C251.76 36.44 255.813 38.0613 259.056 41.304C262.299 44.4613 263.92 48.472 263.92 53.336V108.504C263.92 109.869 264.603 110.552 265.968 110.552H271.6C276.464 110.552 280.475 112.173 283.632 115.416C286.875 118.659 288.496 122.712 288.496 127.576C288.496 129.88 288.112 132.013 287.344 133.976C288.112 136.024 288.496 138.157 288.496 140.376ZM280.176 127.576C280.176 125.016 279.365 122.925 277.744 121.304C276.208 119.683 274.16 118.872 271.6 118.872H265.968C263.067 118.872 260.592 117.891 258.544 115.928C256.581 113.88 255.6 111.405 255.6 108.504V53.336C255.6 50.776 254.789 48.728 253.168 47.192C251.547 45.5707 249.456 44.76 246.896 44.76C244.336 44.76 242.245 45.5707 240.624 47.192C239.088 48.728 238.32 50.776 238.32 53.336V108.504C238.32 116.44 240.923 123.053 246.128 128.344C251.419 133.549 258.032 136.152 265.968 136.152H271.6C274.16 136.152 276.208 135.384 277.744 133.848C279.365 132.227 280.176 130.136 280.176 127.576ZM391.279 103.384C391.279 118.488 386.031 131.288 375.535 141.784C365.039 152.28 352.239 157.528 337.135 157.528C321.946 157.528 309.103 152.28 298.607 141.784C288.196 131.373 282.991 118.573 282.991 103.384C282.991 101.251 283.119 99.1173 283.375 96.984C283.119 94.8507 282.991 92.7173 282.991 90.584C282.991 75.3947 288.196 62.5947 298.607 52.184C309.103 41.688 321.946 36.44 337.135 36.44C352.324 36.44 365.124 41.688 375.535 52.184C386.031 62.5947 391.279 75.3947 391.279 90.584C391.279 92.8027 391.151 94.9787 390.895 97.112C391.151 99.16 391.279 101.251 391.279 103.384ZM382.959 90.584C382.959 77.6987 378.522 66.8613 369.647 58.072C360.858 49.1973 350.02 44.76 337.135 44.76C324.25 44.76 313.37 49.1973 304.495 58.072C295.706 66.8613 291.311 77.6987 291.311 90.584C291.311 103.469 295.706 114.349 304.495 123.224C313.37 132.013 324.25 136.408 337.135 136.408C350.02 136.408 360.858 132.013 369.647 123.224C378.522 114.349 382.959 103.469 382.959 90.584ZM365.679 90.584C365.679 98.6907 362.948 105.475 357.487 110.936C352.026 116.397 345.242 119.128 337.135 119.128C329.114 119.128 322.33 116.397 316.783 110.936C311.322 105.475 308.591 98.6907 308.591 90.584C308.591 82.392 311.322 75.608 316.783 70.232C322.244 64.7707 329.028 62.04 337.135 62.04C345.242 62.04 352.026 64.7707 357.487 70.232C362.948 75.6933 365.679 82.4773 365.679 90.584ZM356.463 96.856C355.524 93.9547 353.903 91.3093 351.599 88.92C347.674 85.08 342.852 83.16 337.135 83.16C332.527 83.16 328.474 84.44 324.975 87C321.476 89.4747 319.13 92.8027 317.935 96.984C319.215 101.08 321.562 104.408 324.975 106.968C328.474 109.528 332.527 110.808 337.135 110.808C341.743 110.808 345.796 109.528 349.295 106.968C352.794 104.408 355.183 101.037 356.463 96.856ZM494.654 103.384C494.654 118.488 489.406 131.288 478.91 141.784C468.414 152.28 455.614 157.528 440.51 157.528C425.321 157.528 412.478 152.28 401.982 141.784C391.571 131.373 386.366 118.573 386.366 103.384C386.366 101.251 386.494 99.1173 386.75 96.984C386.494 94.8507 386.366 92.7173 386.366 90.584C386.366 75.3947 391.571 62.5947 401.982 52.184C412.478 41.688 425.321 36.44 440.51 36.44C455.699 36.44 468.499 41.688 478.91 52.184C489.406 62.5947 494.654 75.3947 494.654 90.584C494.654 92.8027 494.526 94.9787 494.27 97.112C494.526 99.16 494.654 101.251 494.654 103.384ZM486.334 90.584C486.334 77.6987 481.897 66.8613 473.022 58.072C464.233 49.1973 453.395 44.76 440.51 44.76C427.625 44.76 416.745 49.1973 407.87 58.072C399.081 66.8613 394.686 77.6987 394.686 90.584C394.686 103.469 399.081 114.349 407.87 123.224C416.745 132.013 427.625 136.408 440.51 136.408C453.395 136.408 464.233 132.013 473.022 123.224C481.897 114.349 486.334 103.469 486.334 90.584ZM469.054 90.584C469.054 98.6907 466.323 105.475 460.862 110.936C455.401 116.397 448.617 119.128 440.51 119.128C432.489 119.128 425.705 116.397 420.158 110.936C414.697 105.475 411.966 98.6907 411.966 90.584C411.966 82.392 414.697 75.608 420.158 70.232C425.619 64.7707 432.403 62.04 440.51 62.04C448.617 62.04 455.401 64.7707 460.862 70.232C466.323 75.6933 469.054 82.4773 469.054 90.584ZM459.838 96.856C458.899 93.9547 457.278 91.3093 454.974 88.92C451.049 85.08 446.227 83.16 440.51 83.16C435.902 83.16 431.849 84.44 428.35 87C424.851 89.4747 422.505 92.8027 421.31 96.984C422.59 101.08 424.937 104.408 428.35 106.968C431.849 109.528 435.902 110.808 440.51 110.808C445.118 110.808 449.171 109.528 452.67 106.968C456.169 104.408 458.558 101.037 459.838 96.856ZM617.357 168.536C617.357 173.4 615.736 177.411 612.493 180.568C609.25 183.811 605.197 185.432 600.333 185.432C590.093 185.432 581.432 181.976 574.349 175.064C567.352 168.237 563.853 159.704 563.853 149.464V85.208C563.853 83.928 563.256 83.2453 562.061 83.16V140.376C562.061 145.24 560.44 149.251 557.197 152.408C553.954 155.651 549.901 157.272 545.037 157.272C540.173 157.272 536.12 155.651 532.877 152.408C529.72 149.251 528.141 145.24 528.141 140.376V85.208C528.141 83.8427 527.458 83.16 526.093 83.16C524.728 83.16 524.045 83.8427 524.045 85.208V140.376C524.045 145.24 522.424 149.251 519.181 152.408C516.024 155.651 512.013 157.272 507.149 157.272C502.285 157.272 498.232 155.651 494.989 152.408C491.746 149.251 490.125 145.24 490.125 140.376V72.408C490.125 62.3387 493.581 53.848 500.493 46.936C507.49 39.9387 516.024 36.44 526.093 36.44C532.578 36.44 538.552 38.0187 544.013 41.176C549.389 38.0187 555.362 36.44 561.933 36.44C572.002 36.44 580.493 39.9387 587.405 46.936C594.317 53.848 597.773 62.3387 597.773 72.408V136.664C597.773 138.029 598.456 138.712 599.821 138.712C604.856 138.712 609.037 140.291 612.365 143.448C615.693 146.691 617.357 150.787 617.357 155.736C617.357 157.955 616.973 160.088 616.205 162.136C616.973 164.099 617.357 166.232 617.357 168.536ZM609.037 155.736C609.037 153.176 608.226 151.085 606.605 149.464C604.984 147.843 602.893 147.032 600.333 147.032H599.821C596.92 147.032 594.445 146.008 592.397 143.96C590.434 141.997 589.453 139.565 589.453 136.664V72.408C589.453 64.5573 586.808 57.9867 581.517 52.696C576.312 47.4053 569.784 44.76 561.933 44.76C555.106 44.76 549.133 46.9787 544.013 51.416C538.808 46.9787 532.834 44.76 526.093 44.76C518.242 44.76 511.672 47.4053 506.381 52.696C501.09 57.9867 498.445 64.5573 498.445 72.408V127.576C498.445 130.136 499.256 132.227 500.877 133.848C502.498 135.384 504.589 136.152 507.149 136.152C509.709 136.152 511.757 135.384 513.293 133.848C514.914 132.227 515.725 130.136 515.725 127.576V72.408C515.725 69.5067 516.706 67.0747 518.669 65.112C520.717 63.064 523.192 62.04 526.093 62.04C528.909 62.04 531.341 63.064 533.389 65.112C535.437 67.16 536.461 69.592 536.461 72.408V127.576C536.461 130.136 537.229 132.227 538.765 133.848C540.386 135.384 542.477 136.152 545.037 136.152C547.597 136.152 549.688 135.384 551.309 133.848C552.93 132.227 553.741 130.136 553.741 127.576V66.136C555.789 63.4053 558.52 62.04 561.933 62.04C564.749 62.04 567.138 63.064 569.101 65.112C571.149 67.16 572.173 69.592 572.173 72.408V136.664C572.173 144.515 574.818 151.085 580.109 156.376C585.4 161.667 591.97 164.312 599.821 164.312H600.333C602.893 164.312 604.984 163.501 606.605 161.88C608.226 160.344 609.037 158.296 609.037 155.736Z" fill="black"/>
<circle cx="103.5" cy="103.5" r="103.5" fill="black"/>
<path d="M143.92 172.856C143.92 184.376 139.952 194.061 132.016 201.912C124.165 209.848 114.48 213.816 102.96 213.816C91.44 213.816 81.712 209.848 73.776 201.912C65.9253 194.061 62 184.376 62 172.856C62 170.723 62.1707 168.589 62.512 166.456C62.1707 164.323 62 162.189 62 160.056C62 149.389 65.456 140.173 72.368 132.408C65.456 124.728 62 115.512 62 104.76C62 102.627 62.1707 100.493 62.512 98.36C62.1707 96.2267 62 94.0933 62 91.96C62 80.3547 65.9253 70.6267 73.776 62.776C81.6267 54.9253 91.3547 51 102.96 51C114.565 51 124.293 54.9253 132.144 62.776C139.995 70.6267 143.92 80.3547 143.92 91.96V135.608C143.92 140.557 142.811 145.208 140.592 149.56C142.811 152.547 143.92 156.045 143.92 160.056C143.92 162.701 143.707 165.261 143.28 167.736C143.707 169.357 143.92 171.064 143.92 172.856ZM108.08 99.768C106.715 98.4027 105.008 97.72 102.96 97.72C101.851 97.72 100.827 97.9333 99.888 98.36C100.741 98.7867 102.107 99.0853 103.984 99.256C105.947 99.4267 107.312 99.5973 108.08 99.768ZM135.6 160.056C135.6 157.496 134.789 155.405 133.168 153.784C131.632 152.163 129.584 151.352 127.024 151.352C124.549 151.352 122.459 152.163 120.752 153.784C119.131 155.491 118.32 157.581 118.32 160.056C118.32 164.323 116.827 167.949 113.84 170.936C110.853 173.923 107.227 175.416 102.96 175.416C98.6933 175.416 95.0667 173.923 92.08 170.936C89.0933 167.949 87.6 164.323 87.6 160.056C87.6 155.789 89.0933 152.12 92.08 149.048C95.0667 146.061 98.6933 144.568 102.96 144.568H113.968C120.027 144.568 125.147 142.435 129.328 138.168C133.509 133.987 135.6 128.867 135.6 122.808V91.96C135.6 82.6587 132.485 74.8933 126.256 68.664C120.027 62.4347 112.261 59.32 102.96 59.32C93.6587 59.32 85.8933 62.4347 79.664 68.664C73.4347 74.8933 70.32 82.6587 70.32 91.96C70.32 101.261 73.4347 109.069 79.664 115.384C85.8933 121.613 93.6587 124.728 102.96 124.728C105.52 124.728 107.611 123.917 109.232 122.296C110.853 120.675 111.664 118.584 111.664 116.024C111.664 113.464 110.853 111.416 109.232 109.88C107.611 108.259 105.52 107.448 102.96 107.448C98.6933 107.448 95.0667 105.955 92.08 102.968C89.0933 99.896 87.6 96.2267 87.6 91.96C87.6 87.6933 89.0933 84.0667 92.08 81.08C95.0667 78.0933 98.6933 76.6 102.96 76.6C107.227 76.6 110.853 78.0933 113.84 81.08C116.827 84.0667 118.32 87.6933 118.32 91.96V122.808C118.32 124.003 117.893 125.027 117.04 125.88C116.187 126.819 115.163 127.288 113.968 127.288H102.832C93.616 127.288 85.8933 130.445 79.664 136.76C73.4347 143.075 70.32 150.84 70.32 160.056C70.32 169.272 73.4347 176.995 79.664 183.224C85.9787 189.539 93.744 192.696 102.96 192.696C112.176 192.696 119.899 189.539 126.128 183.224C132.443 176.995 135.6 169.272 135.6 160.056ZM107.312 165.688H102.96C101.851 165.688 100.827 165.944 99.888 166.456C100.827 166.883 101.851 167.096 102.96 167.096C104.581 167.096 106.032 166.627 107.312 165.688Z" fill="white"/>
</svg>
